HIERARCHY
ROOT Hips
{
	OFFSET 0.00000 0.00000 0.00000
	CHANNELS 6 Xposition Yposition Zposition Yrotation Zrotation Xrotation 
	JOINT Lumbar
	{
		OFFSET 0 0 0
		CHANNELS 3 Zrotation Xrotation Yrotation
		JOINT Neck
		{
			OFFSET 0.00 0.2701 0.00
			CHANNELS 3 Zrotation Xrotation Yrotation
			End Site
			{
				OFFSET 0.00 0.1379 0.00
			}
		}
		JOINT RightShoulder
		{
			OFFSET 0.0119 0.2289 0.1181
			CHANNELS 3 Zrotation Xrotation Yrotation
			JOINT RightElbow
			{
				OFFSET 0.00 -0.1475 0.00
				CHANNELS 2 Zrotation Yrotation
				JOINT RightWrist
				{
					OFFSET 0.00 -0.1605 0.00
					CHANNELS 2 Zrotation Xrotation
					End Site
					{
						OFFSET 0.0040 -0.1068 0.0006
					}
				}
			}
		}
		JOINT LeftShoulder
		{
			OFFSET 0.0119 0.2289 -0.1181
			CHANNELS 3 Zrotation Xrotation Yrotation
			JOINT LeftElbow
			{
				OFFSET 0.00 -0.1475 0.00
				CHANNELS 2 Zrotation Yrotation
				JOINT LeftWrist
				{
					OFFSET 0.00 -0.1605 0.00
					CHANNELS 2 Zrotation Xrotation
					End Site
					{
						OFFSET 0.0040 -0.1068 -0.0006
					}
				}
			}
		}
	}
	JOINT RightHip
	{
		OFFSET 0.0316 -0.0424 0.0458
		CHANNELS 3 Zrotation Xrotation Yrotation
		JOINT RightKnee
		{
			OFFSET 0.00 -0.2438 0.00
			CHANNELS 1 Zrotation
			JOINT RightAnkle
			{
				OFFSET 0.00 -0.2449 0.00
				CHANNELS 3 Zrotation Xrotation Yrotation
				End Site
				{
					OFFSET 0.1237 -0.0542 0.0051
				}
			}
		}
	}
	JOINT LeftHip
	{
		OFFSET 0.0316 -0.0424 -0.0458
		CHANNELS 3 Zrotation Xrotation Yrotation
		JOINT LeftKnee
		{
			OFFSET 0.00 -0.2438 0.00
			CHANNELS 1 Zrotation
			JOINT LeftAnkle
			{
				OFFSET 0.00 -0.2449 0.00
				CHANNELS 3 Zrotation Xrotation Yrotation
				End Site
				{
					OFFSET 0.1237 -0.0542 -0.0051
				}
			}
		}
	}
}
MOTION
Frames: 11
Frame Time: 0.02
0.00122 8e-05 0.00062 117.5173 -33.93008 -13.49969 42.25195 -1.53794 -10.49099 -16.34787 5.63046 -0.4639 -25.00834 -8.00302 -14.05341 30.41687 98.21051 9.3362 1.33703 -24.3074 11.96843 9.21094 40.30262 -108.34116 15.35487 -1.82569 30.88568 -4.40721 -2.87533 -20.72456 -6.93156 -4.74987 -3.27524 33.91062 4.92701 -0.3209 -25.6776 -7.12707 4.27736 2.94091
0.00133 9e-05 -0.00026 117.3138 -33.8828 -13.55 42.33808 -1.49844 -10.43696 -16.34706 5.67734 -0.46423 -24.92327 -8.04334 -13.90855 30.53181 98.31474 9.36693 1.33009 -24.49014 11.89799 9.11714 40.28469 -108.43695 15.43325 -1.82609 30.79495 -4.40594 -3.24527 -20.69298 -6.89066 -4.71285 -3.2424 33.77178 5.04607 -0.00266 -25.63048 -7.11415 4.27344 2.93441
0.00143 0.0001 -0.00114 117.11072 -33.83566 -13.60023 42.42402 -1.45905 -10.38312 -16.34622 5.72414 -0.46455 -24.83831 -8.08344 -13.76427 30.64643 98.4188 9.39754 1.32323 -24.67272 11.82765 9.02365 40.26671 -108.5327 15.5115 -1.82653 30.70446 -4.40452 -3.61378 -20.66147 -6.8499 -4.67596 -3.20967 33.63329 5.16483 0.3145 -25.58348 -7.10128 4.26956 2.92796
0.00154 0.00011 -0.00202 116.90782 -33.78852 -13.6504 42.5099 -1.41966 -10.32926 -16.3454 5.77088 -0.46487 -24.75347 -8.12364 -13.61978 30.76102 98.52239 9.42807 1.31627 -24.85497 11.75743 8.93008 40.24882 -108.62801 15.58957 -1.8269 30.614 -4.40323 -3.98254 -20.62997 -6.80913 -4.63906 -3.17693 33.49487 5.28354 0.63175 -25.5365 -7.08839 4.26566 2.92148
0.00165 0.00012 -0.0029 116.70456 -33.74125 -13.70063 42.59595 -1.38017 -10.27519 -16.34461 5.81767 -0.46519 -24.66857 -8.16402 -13.47497 30.87592 98.62705 9.45899 1.30936 -25.03725 11.68709 8.83636 40.23099 -108.72387 15.66794 -1.82732 30.5233 -4.40215 -4.35284 -20.59841 -6.76824 -4.60203 -3.14409 33.35611 5.40251 0.95008 -25.4894 -7.07546 4.26171 2.91497
0.00175 0.00013 -0.00377 116.50188 -33.69439 -13.75084 42.68162 -1.34098 -10.22181 -16.34369 5.86448 -0.46552 -24.58349 -8.20351 -13.33194 30.98995 98.73037 9.48912 1.30271 -25.22042 11.61674 8.74345 40.21272 -108.81972 15.74606 -1.82785 30.43328 -4.40003 -4.71757 -20.567 -6.72773 -4.56542 -3.1116 33.21821 5.52081 1.26474 -25.44264 -7.06273 4.25797 2.90864
0.00186 0.00014 -0.00465 116.29828 -33.64674 -13.80104 42.76796 -1.30123 -10.16713 -16.34303 5.91123 -0.46584 -24.49889 -8.24493 -13.18475 31.10557 98.83375 9.5201 1.29516 -25.4016 11.54664 8.64859 40.19539 -108.91389 15.82403 -1.82792 30.34198 -4.39998 -5.09307 -20.53533 -6.6865 -4.528 -3.07843 33.07874 5.64036 1.58649 -25.39524 -7.04959 4.25381 2.90194
0.00196 0.00015 -0.00553 116.09549 -33.59982 -13.85123 42.8537 -1.262 -10.11362 -16.34214 5.95798 -0.46616 -24.4138 -8.28421 -13.04273 31.21978 98.94167 9.55156 1.28913 -25.5846 11.476 8.55629 40.17711 -109.0125 15.90316 -1.82884 30.25186 -4.39806 -5.45872 -20.5039 -6.64593 -4.49133 -3.04588 32.9407 5.75872 1.90165 -25.34841 -7.03684 4.25005 2.89558
0.00207 0.00016 -0.00641 115.89373 -33.55379 -13.90152 42.9387 -1.22339 -10.06161 -16.34091 6.00498 -0.46648 -24.32823 -8.32233 -12.90173 31.33213 99.037 9.57859 1.28219 -25.77004 11.40587 8.46408 40.15797 -109.10515 15.97973 -1.82911 30.16317 -4.39365 -5.81211 -20.47275 -6.60615 -4.45558 -3.01413 32.80443 5.87584 2.20906 -25.30234 -7.02454 4.24672 2.88965
0.00217 0.00017 -0.00729 115.68612 -33.50264 -13.9516 43.02795 -1.18117 -10.00119 -16.34146 6.05126 -0.46682 -24.24578 -8.37149 -12.73891 31.45477 99.15025 9.61605 1.27217 -25.94211 11.33632 8.3622 40.14467 -109.19787 16.05908 -1.82805 30.06619 -4.40295 -6.23536 -20.43992 -6.5618 -4.41453 -2.97787 32.65803 6.00076 2.56197 -25.25208 -7.00955 4.24075 2.88127
0.00229 0.00018 -0.00816 115.49088 -33.4623 -14.00187 43.10823 -1.14656 -9.95839 -16.33835 6.09862 -0.46712 -24.15655 -8.39458 -12.63231 31.55593 99.26049 9.64114 1.27399 -26.14189 11.26333 8.28656 40.11851 -109.31228 16.14014 -1.83301 29.98679 -4.38378 -6.51166 -20.41071 -6.5271 -4.38466 -2.9511 32.53296 6.10875 2.81828 -25.21057 -7.0003 4.24044 2.87807
